<svg id="Capa_1" enable-background="new 0 0 512 512" height="512" viewBox="0 0 512 512" width="512" xmlns="http://www.w3.org/2000/svg"><g><g><path d="m449.516 348.484s62.484-25.682 62.484-80.322c0-45.62-69.651-220.575-256-220.575s-256 174.955-256 220.575c0 54.64 62.484 80.322 62.484 80.322z" fill="#7c7f2a"/><path d="m435.911 288.916c-27.908-16.503-96.117-50.893-179.911-50.893s-152.003 34.39-179.911 50.893c-8.425 4.982-13.604 14.024-13.604 23.812v18.581h387.031v-18.581c-.001-9.788-5.18-18.83-13.605-23.812z" fill="#6a6925"/><path d="m220.136 175.13c1.356 1.615 2.031 3.694 1.884 5.798l-1.183 16.874h70.326l-1.183-16.874c-.147-2.104.528-4.182 1.884-5.798l14.828-17.666c3.865-4.605 1.571-11.667-4.263-13.121l-22.38-5.576c-2.046-.51-3.814-1.794-4.932-3.583l-12.219-19.562c-3.185-5.099-10.611-5.099-13.796 0l-12.219 19.562c-1.117 1.789-2.885 3.073-4.932 3.583l-22.38 5.576c-5.834 1.454-8.128 8.516-4.263 13.121z" fill="#f7e471"/><path d="m449.516 359.846v-28.538c0-9.788-5.179-18.83-13.604-23.812-27.908-16.503-96.117-50.893-179.911-50.893s-152.003 34.39-179.911 50.893c-8.425 4.982-13.604 14.024-13.604 23.812v28.538z" fill="#08475e"/><path d="m62.484 359.846v18.581h387.031v-18.581s-91.138-55.624-193.519-55.624c-102.38 0-193.512 55.624-193.512 55.624z" fill="#05303d"/><path d="m449.516 378.427s0 85.985-193.516 85.985-193.516-85.985-193.516-85.985 91.131-55.624 193.512-55.624c102.382 0 193.52 55.624 193.52 55.624z" fill="#0a617d"/><g><path d="m291.163 197.802-32.115-12.981c-1.955-.79-4.141-.79-6.096 0l-32.115 12.981-.43 6.134c-.42 5.997 5.587 10.362 11.161 8.109l21.383-8.644c1.955-.79 4.141-.79 6.096 0l21.384 8.644c5.574 2.253 11.582-2.112 11.161-8.109z" fill="#f1cb66"/></g></g></g></svg>